<svg width="240" height="37" viewBox="0 0 240 37" fill="none" xmlns="http://www.w3.org/2000/svg">
<path d="M231.296 12.8013H232.493V16.1363H233.564V12.8013H234.698V11.8574H231.296V12.8013Z" fill="#B39E8A"/>
<path d="M239.297 11.8574L237.596 14.1856L235.895 11.8574H235.139V16.1363H236.21V13.9339L237.407 15.57H237.785L238.982 13.9339V16.1363H239.99V11.8574H239.297Z" fill="#B39E8A"/>
<path d="M48.4735 32.7484C46.6465 32.6854 46.2686 32.182 46.2686 30.0426V19.0308C46.2686 13.6822 43.3706 11.291 36.8187 11.291C30.8969 11.291 27.5579 13.0529 27.5579 16.0733C27.5579 18.7791 30.7079 19.2825 33.5428 19.3454C33.8578 19.3454 34.1098 19.0937 34.1098 18.7791C34.2358 14.9406 35.6218 14.6889 36.6297 14.6889C38.5827 14.6889 38.9607 16.1991 38.9607 19.2825V21.296L35.7478 21.4219C28.8809 21.6107 25.668 23.9389 25.668 28.847C25.668 33.4405 28.4399 36.2721 32.8498 36.2721C36.0628 36.2721 37.4487 35.2653 39.4647 32.8742L40.2207 35.3912C40.2837 35.6429 40.5357 35.7687 40.7877 35.7687H48.4735C48.7885 35.7687 49.0405 35.517 49.0405 35.2024V33.3147C48.9775 33 48.7885 32.7484 48.4735 32.7484ZM38.8977 27.148C38.8977 30.2943 37.4487 32.3079 35.1808 32.3079C34.2988 32.3079 33.1018 31.9303 33.1018 28.9729C33.1018 25.8266 34.2988 24.5681 37.3857 24.3794L38.9607 24.2535V27.148H38.8977Z" fill="#B39E8A"/>
<path d="M130.939 11.291C123.19 11.291 119.284 15.444 119.284 23.7501C119.284 31.8045 123.379 36.2092 130.813 36.2092C138.562 36.2092 142.468 31.9933 142.468 23.7501C142.468 15.6957 138.373 11.291 130.939 11.291ZM130.876 32.7484C127.978 32.7484 126.718 29.9797 126.718 23.7501C126.718 17.4576 127.978 14.8148 130.876 14.8148C133.837 14.8148 135.034 17.5206 135.034 23.7501C135.034 30.0426 133.774 32.7484 130.876 32.7484Z" fill="#B39E8A"/>
<path d="M184.803 32.7484C182.85 32.6854 182.346 32.3079 182.346 30.0426V19.9746C182.346 14.1856 179.826 11.291 174.849 11.291C172.329 11.291 169.683 11.5427 167.793 14.8777C166.723 12.4866 164.455 11.291 161.053 11.291C158.596 11.291 156.265 11.5427 154.438 14.5631L154.06 12.3607C153.997 12.109 153.745 11.9203 153.493 11.9203H144.799C144.484 11.9203 144.232 12.172 144.232 12.4866V14.2485C144.232 14.5631 144.484 14.8148 144.799 14.8148C146.878 14.8777 147.508 15.3182 147.508 17.2689V30.2314C147.508 32.3079 146.752 32.8113 144.61 32.8742C144.295 32.8742 144.043 33.1259 144.043 33.4405V35.3283C144.043 35.6429 144.295 35.8946 144.61 35.8946H157.525C157.84 35.8946 158.092 35.6429 158.092 35.3283V33.4405C158.092 33.1259 157.84 32.8742 157.525 32.8742C155.446 32.8113 154.816 32.3708 154.816 30.4201V22.0511C154.816 19.1566 155.383 15.6957 158.218 15.6957C160.36 15.6957 161.305 17.3947 161.305 21.1702V35.2024C161.305 35.517 161.557 35.7687 161.872 35.7687H171.069C171.384 35.7687 171.636 35.517 171.636 35.2024V33.3147C171.636 33.0001 171.384 32.7484 171.069 32.7484C169.116 32.6854 168.612 32.3079 168.612 30.0426V21.5477C168.612 20.1634 168.864 15.6957 172.014 15.6957C174.156 15.6957 175.101 17.3947 175.101 21.1702V35.2024C175.101 35.517 175.353 35.7687 175.668 35.7687H184.866C185.181 35.7687 185.433 35.517 185.433 35.2024V33.3147C185.307 33.0001 185.118 32.7484 184.803 32.7484Z" fill="#B39E8A"/>
<path d="M197.781 11.291C190.599 11.291 186.693 15.7587 186.693 23.9389C186.693 31.8674 190.788 36.2092 198.285 36.2092C204.837 36.2092 207.168 33.5035 207.168 31.2382C207.168 30.2943 206.853 29.4133 205.971 28.9099C205.719 28.7212 205.341 28.847 205.215 29.0987C203.829 31.364 201.939 32.245 199.545 32.245C196.143 32.245 194.316 29.7909 194.127 24.6311H207.735C208.05 24.6311 208.302 24.3794 208.302 24.0647V22.1141C208.239 15.2553 204.459 11.291 197.781 11.291ZM194.127 21.1702C194.379 17.0801 195.639 14.8148 197.844 14.8148C199.86 14.8148 200.868 16.8913 200.931 21.1702H194.127Z" fill="#B39E8A"/>
<path d="M222.477 20.9185C217.626 19.2195 216.807 18.4015 216.807 16.8284C216.807 15.1923 218.382 14.5002 219.957 14.5002C222.603 14.5002 223.296 16.2621 223.422 18.4644C223.422 18.7791 223.674 19.0308 223.989 19.0308C227.138 18.9049 228.524 17.8352 228.524 15.6957C228.524 13.6822 226.446 11.291 220.587 11.291C214.413 11.291 210.885 13.9339 210.885 18.5274C210.885 22.8692 213.846 24.7569 218.382 26.33C222.351 27.7144 223.485 28.5953 223.485 30.2943C223.485 31.9303 222.036 32.8742 219.579 32.8742C217.059 32.8742 215.421 31.1752 215.295 27.6514C215.295 27.3368 215.043 27.0851 214.665 27.0851C211.893 27.2739 210.507 28.5953 210.507 30.7348C210.507 32.7483 211.704 36.1463 219.579 36.1463C225.753 36.1463 229.343 33.2517 229.343 28.1548C229.28 23.813 225.375 21.9253 222.477 20.9185Z" fill="#B39E8A"/>
<path d="M83.3748 11.3555C79.8469 11.3555 78.2719 12.6769 77.2009 14.8163L76.571 12.2993C76.508 12.0476 76.256 11.8589 76.004 11.8589H67.6251C67.3101 11.8589 67.0581 12.1106 67.0581 12.4252V14.3129C67.0581 14.6276 67.3101 14.8793 67.6251 14.8793C69.7041 14.9422 70.3341 15.4456 70.3341 17.4592V29.9812C70.3341 32.1206 69.6411 32.687 67.4361 32.7499C67.1211 32.7499 66.8691 33.0016 66.8691 33.3162V35.2039C66.8691 35.5186 67.1211 35.7703 67.4361 35.7703H81.4848C81.7998 35.7703 82.0518 35.5186 82.0518 35.2039V33.3162C82.0518 33.0016 81.7998 32.7499 81.4848 32.7499H80.2879C78.5239 32.7499 77.6419 32.3723 77.6419 30.2329V22.7448C77.6419 22.0527 77.7049 16.2007 80.7289 16.2007C81.7998 16.2007 82.4298 16.6411 82.4928 19.2211C82.4928 19.5357 82.7448 19.7874 83.0598 19.7874C86.8397 19.6615 88.6667 17.9626 88.6667 15.2568C88.6667 12.614 86.9027 11.3555 83.3748 11.3555Z" fill="#B39E8A"/>
<path d="M58.0495 9.02651C60.3805 9.02651 62.3335 7.13877 62.3335 4.74763C62.3335 2.35649 60.4435 0.46875 58.0495 0.46875C55.6556 0.46875 53.7656 2.35649 53.7656 4.74763C53.7656 7.13877 55.7186 9.02651 58.0495 9.02651Z" fill="#B39E8A"/>
<path d="M64.7909 32.7484C62.3969 32.6226 61.7669 31.8046 61.7669 30.2944V12.4237C61.7669 12.1091 61.5149 11.8574 61.2 11.8574H51.4351C51.1202 11.8574 50.8682 12.1091 50.8682 12.4237V14.3115C50.8682 14.6261 51.1202 14.8778 51.4351 14.8778C53.8291 15.0037 54.4591 15.6958 54.4591 17.1431V30.2944C54.4591 31.8046 53.8291 32.6226 51.4351 32.7484C51.1202 32.7484 50.8682 33.0001 50.8682 33.3148V35.2025C50.8682 35.5171 51.1202 35.7688 51.4351 35.7688H64.7909C65.1059 35.7688 65.3579 35.5171 65.3579 35.2025V33.3148C65.2949 33.0001 65.1059 32.7484 64.7909 32.7484Z" fill="#B39E8A"/>
<path d="M117.394 32.7494C115.505 32.6865 114.938 32.3089 114.938 30.0436V19.4093C114.938 18.5284 114.56 17.7104 113.867 17.207L103.724 9.15262C103.535 8.96384 103.22 8.96384 103.031 9.15262L98.5579 12.7393V2.73429C98.5579 2.41967 98.3059 2.16797 97.9909 2.16797H88.7301C88.4151 2.16797 88.1631 2.41967 88.1631 2.73429V4.62203C88.1631 4.93666 88.4151 5.18836 88.7301 5.18836C91.124 5.25128 91.754 6.00638 91.754 7.45365V30.1066C91.754 32.1831 90.998 32.6865 88.8561 32.7494C88.5411 32.7494 88.2891 33.0011 88.2891 33.3157V35.2035C88.2891 35.5181 88.5411 35.7698 88.8561 35.7698H101.771C102.086 35.7698 102.338 35.5181 102.338 35.2035V33.3157C102.338 33.0011 102.086 32.7494 101.771 32.7494C99.6919 32.6865 99.0619 32.246 99.0619 30.2953V20.0386C99.0619 19.1576 99.4399 18.3396 100.133 17.8362L103.283 15.3192L106.433 17.8362C107.126 18.4026 107.504 19.2206 107.504 20.0386V35.2035C107.504 35.5181 107.756 35.7698 108.071 35.7698H117.268C117.583 35.7698 117.835 35.5181 117.835 35.2035V33.3157C117.961 33.0011 117.709 32.7494 117.394 32.7494Z" fill="#B39E8A"/>
<path d="M24.9122 2.16797H1.28769C0.972697 2.16797 0.720703 2.41967 0.720703 2.73429V4.62203C0.720703 4.93666 0.972697 5.18836 1.28769 5.18836H2.92566C3.99664 5.18836 4.75262 5.37713 4.75262 7.45365V30.547C4.75262 32.6235 3.99664 32.8123 2.92566 32.8123H1.28769C0.972697 32.8123 0.720703 33.064 0.720703 33.3786V35.2664C0.720703 35.581 0.972697 35.8327 1.28769 35.8327H16.6594C16.9744 35.8327 17.2264 35.581 17.2264 35.2664V33.3786C17.2264 33.064 16.9744 32.8123 16.6594 32.8123H14.2024C13.1945 32.8123 12.3125 32.6235 12.3125 30.3582V22.241H22.0143C22.3293 22.241 22.5813 21.9893 22.5813 21.6746V18.7801C22.5813 18.4655 22.3293 18.2138 22.0143 18.2138H12.3125V5.50298H18.8643C20.5653 5.50298 21.5103 6.44685 21.6993 8.39752L21.8883 10.2853C21.8883 10.5999 22.1403 10.7887 22.4553 10.7887H25.1012C25.4162 10.7887 25.6682 10.537 25.6682 10.2223L25.4792 2.67137C25.4162 2.41967 25.1642 2.16797 24.9122 2.16797Z" fill="#B39E8A"/>
</svg>
