<svg width="1440" height="806" viewBox="0 0 1440 806" fill="none" xmlns="http://www.w3.org/2000/svg">
<rect width="1440" height="803" fill="#032022"/>
<path d="M1375.22 794.96C1393.08 794.96 1404.48 786.22 1404.48 769.5C1404.48 756.2 1395.36 750.5 1380.92 742.9L1352.42 728.08C1334.56 718.96 1321.26 705.66 1321.26 684C1321.26 654.36 1345.96 634.6 1375.98 634.6C1394.6 634.6 1406.38 643.72 1412.08 643.72C1416.64 643.72 1418.16 640.3 1419.68 636.5H1424.62L1427.66 685.52L1420.82 686.28C1416.26 660.06 1398.02 644.48 1377.88 644.48C1361.92 644.48 1352.42 654.36 1352.42 668.42C1352.42 680.96 1361.54 687.42 1374.84 693.88L1400.3 707.18C1419.68 717.44 1434.88 730.74 1434.88 754.3C1434.88 784.32 1409.42 805.6 1376.36 805.6C1351.66 805.6 1339.12 792.68 1333.8 792.68C1330 792.68 1326.96 798 1325.82 802.94H1320.5L1317.46 746.32L1325.06 745.94C1328.86 773.68 1349 794.96 1375.22 794.96Z" fill="#F7F7F7" fill-opacity="0.03"/>
<path d="M1234.59 644.86C1214.83 644.86 1200.39 660.82 1197.35 691.22H1265.37C1264.23 664.24 1254.73 644.86 1234.59 644.86ZM1302.99 769.12C1288.17 793.06 1264.23 805.6 1239.91 805.6C1195.07 805.6 1158.21 771.4 1158.21 722.38C1158.21 672.22 1196.21 634.6 1235.73 634.6C1279.43 634.6 1300.33 669.18 1300.33 700.72H1196.59C1196.59 701.86 1196.59 703.38 1196.59 704.9C1196.59 750.88 1222.43 784.32 1259.29 784.32C1275.25 784.32 1287.79 778.24 1298.05 764.56L1302.99 769.12Z" fill="#F7F7F7" fill-opacity="0.03"/>
<path d="M948.999 793.82V801.8H866.539V793.82C883.639 793.82 887.439 791.92 887.439 773.3V666.9C887.439 648.28 883.639 646.38 866.539 646.38V638.4H928.099V668.04C935.699 652.84 953.559 634.6 979.019 634.6C1006.38 634.6 1020.82 650.18 1026.14 671.46C1032.98 655.88 1051.6 634.6 1079.34 634.6C1113.92 634.6 1128.36 659.68 1128.36 690.08V773.3C1128.36 791.92 1132.16 793.82 1149.64 793.82V801.8H1067.18V793.82C1084.28 793.82 1088.08 791.92 1088.08 773.3V696.54C1088.08 669.18 1078.2 656.26 1058.06 656.26C1044 656.26 1032.6 666.52 1027.28 678.68C1027.66 682.1 1028.04 686.28 1028.04 690.08V773.3C1028.04 791.92 1031.84 793.82 1049.32 793.82V801.8H966.859V793.82C983.959 793.82 987.759 791.92 987.759 773.3V696.54C987.759 669.18 977.879 656.26 958.119 656.26C945.199 656.26 934.559 664.24 928.099 676.4V773.3C928.099 791.92 931.899 793.82 948.999 793.82Z" fill="#F7F7F7" fill-opacity="0.03"/>
<path d="M852.53 720.1C852.53 770.64 812.63 805.6 771.21 805.6C729.79 805.6 689.89 770.64 689.89 720.1C689.89 669.18 729.79 634.6 771.21 634.6C812.63 634.6 852.53 669.18 852.53 720.1ZM810.73 720.1C810.73 669.56 794.77 644.48 771.21 644.48C747.65 644.48 731.69 669.56 731.69 720.1C731.69 770.26 747.65 795.34 771.21 795.34C794.77 795.34 810.73 770.26 810.73 720.1Z" fill="#F7F7F7" fill-opacity="0.03"/>
<path d="M578.224 793.821V801.801H496.144V793.821C513.244 793.821 517.044 791.921 517.044 773.301V583.301C517.044 564.681 512.484 562.781 492.344 562.781V554.801H557.704V668.801C565.304 653.221 584.684 634.601 609.384 634.601C643.964 634.601 659.924 659.681 659.924 690.081V773.301C659.924 791.921 663.724 793.821 681.204 793.821V801.801H598.744V793.821C615.844 793.821 619.644 791.921 619.644 773.301V696.541C619.644 669.181 608.244 656.261 588.484 656.261C575.184 656.261 564.164 664.621 557.704 677.161V773.301C557.704 791.921 561.504 793.821 578.224 793.821Z" fill="#F7F7F7" fill-opacity="0.03"/>
<path d="M451.16 793.82V801.8H361.48V793.82C378.58 793.82 382.38 791.92 382.38 773.3V666.9C382.38 648.28 378.58 646.38 361.48 646.38V638.4H422.66V674.12C439.38 649.04 450.78 634.6 465.98 634.6C477 634.6 488.4 643.34 493.72 651.32L478.9 685.9H477.76C470.54 673.36 458.76 663.48 447.74 663.48C439.38 663.48 432.16 669.94 422.66 682.1V773.3C422.66 791.92 427.98 793.82 451.16 793.82Z" fill="#F7F7F7" fill-opacity="0.03"/>
<path d="M285.047 584.44C285.047 571.14 296.067 561.26 308.987 561.26C321.907 561.26 332.547 571.14 332.547 584.44C332.547 597.36 321.907 607.62 308.987 607.62C296.067 607.62 285.047 597.36 285.047 584.44ZM289.607 666.9C289.607 648.28 285.807 646.38 268.707 646.38V638.4H330.267V773.3C330.267 791.92 334.067 793.82 351.167 793.82V801.8H268.707V793.82C285.807 793.82 289.607 791.92 289.607 773.3V666.9Z" fill="#F7F7F7" fill-opacity="0.03"/>
<path d="M196.962 695.78C196.962 673.74 186.322 655.5 161.242 655.5C143.762 655.5 128.942 667.28 119.822 688.56L112.222 685.52C122.102 656.26 146.802 634.6 179.482 634.6C215.202 634.6 237.242 657.02 237.242 693.12V772.16C237.242 782.8 242.942 788.12 249.402 788.12C255.102 788.12 258.142 785.84 263.082 780.14L267.642 785.08C260.802 796.1 248.642 805.6 232.682 805.6C216.342 805.6 202.282 796.48 197.342 779C187.842 792.68 170.362 805.6 149.462 805.6C128.182 805.6 109.182 791.92 109.182 768.36C109.182 744.04 129.702 732.26 159.722 720.86L196.962 706.8V695.78ZM196.962 717.06L171.122 726.56C156.682 732.64 146.042 741 146.042 758.86C146.042 774.82 156.302 785.84 171.122 785.84C180.242 785.84 189.362 780.9 196.962 772.54V717.06Z" fill="#F7F7F7" fill-opacity="0.03"/>
<path d="M61.18 773.3C61.18 791.92 64.98 793.82 88.16 793.82V801.8H0V793.82C17.1 793.82 20.9 791.92 20.9 773.3V650.56H2.28V643.34L20.9 638.02V634.22C20.9 586.72 49.4 551 93.86 551C109.82 551 122.74 554.42 133.76 560.88L132.24 598.12H125.02C123.88 576.08 115.52 561.64 94.62 561.64C73.34 561.64 61.18 580.26 61.18 618.64V639.16C73.34 639.16 90.44 638.78 101.46 637.64L99.18 650.56H61.18V773.3Z" fill="#F7F7F7" fill-opacity="0.03"/>
</svg>
